<?xml version="1.0" encoding="utf-8"?>
<!-- Generator: Adobe Illustrator 17.0.0, SVG Export Plug-In . SVG Version: 6.00 Build 0)  -->
<!DOCTYPE svg PUBLIC "-//W3C//DTD SVG 1.1//EN" "http://www.w3.org/Graphics/SVG/1.1/DTD/svg11.dtd">
<svg version="1.1" id="Layer_1" xmlns="http://www.w3.org/2000/svg" xmlns:xlink="http://www.w3.org/1999/xlink" x="0px" y="0px"
	 width="335.29px" height="469.677px" viewBox="0 0 335.29 469.677" enable-background="new 0 0 335.29 469.677"
	 xml:space="preserve">
<g>
	<g>
		<polygon fill="#2062AF" points="303.853,433 167.644,469.677 31.432,433 0,92.476 335.29,92.476 		"/>
		<polygon fill="#3C9CD7" points="167.642,120.058 167.642,440.425 167.949,440.508 278.179,410.827 303.621,120.058 		"/>
		<g>
			<polygon points="90.338,42.446 90.338,22.178 119.909,22.178 119.909,0 68.16,0 68.16,62.684 119.909,62.684 119.909,42.446 			
				"/>
			<path d="M173.104,22.178h20.673V0h-51.753c0,0,0,11.132,0,22.178c6.923,6.924,10.535,10.238,20.548,20.252
				c-5.853,0-20.548,0.021-20.548,0.02v20.234h51.753V42.446L173.104,22.178z"/>
			<path d="M246.457,22.178h20.673V0h-51.757c0,0,0,11.132,0,22.178c6.924,6.924,10.537,10.238,20.551,20.252
				c-5.852,0-20.551,0.021-20.551,0.02v20.234h51.757V42.446L246.457,22.178z"/>
		</g>
		<g>
			<polygon fill="#FFFFFF" points="167.521,205.203 70.03,245.806 73.264,286.004 167.521,245.703 267.785,202.836 271.943,161.714 
							"/>
			<linearGradient id="SVGID_1_" gradientUnits="userSpaceOnUse" x1="118.7759" y1="286.0039" x2="118.7759" y2="205.2026">
				<stop  offset="0.3865" style="stop-color:#D1D3D4;stop-opacity:0"/>
				<stop  offset="1" style="stop-color:#D1D3D4"/>
			</linearGradient>
			<polygon fill="url(#SVGID_1_)" points="70.03,245.806 73.264,286.004 167.521,245.703 167.521,205.203 			"/>
			<linearGradient id="SVGID_2_" gradientUnits="userSpaceOnUse" x1="219.7324" y1="245.7031" x2="219.7324" y2="161.7143">
				<stop  offset="0.3865" style="stop-color:#D1D3D4;stop-opacity:0"/>
				<stop  offset="1" style="stop-color:#D1D3D4"/>
			</linearGradient>
			<polygon fill="url(#SVGID_2_)" points="271.943,161.714 167.521,205.203 167.521,245.703 267.785,202.836 			"/>
			<linearGradient id="SVGID_3_" gradientUnits="userSpaceOnUse" x1="70.1802" y1="322.0429" x2="264.2441" y2="322.0429">
				<stop  offset="0" style="stop-color:#E8E7E5"/>
				<stop  offset="1" style="stop-color:#FFFFFF"/>
			</linearGradient>
			<polygon fill="url(#SVGID_3_)" points="70.18,245.806 73.415,286.004 218.039,286.466 214.805,340.063 167.215,353.462 
				121.467,341.911 118.695,308.643 76.187,308.643 81.731,372.868 167.676,398.28 253.154,373.329 264.244,245.806 			"/>
			<g opacity="0.05">
				<polygon points="167.521,245.806 70.03,245.806 73.264,286.004 167.521,286.305 				"/>
				<polygon points="167.521,353.332 167.06,353.462 121.317,341.911 118.545,308.643 76.037,308.643 81.581,372.868 
					167.521,398.28 				"/>
			</g>
			<linearGradient id="SVGID_4_" gradientUnits="userSpaceOnUse" x1="61.2515" y1="182.2751" x2="271.9434" y2="182.2751">
				<stop  offset="0" style="stop-color:#E8E7E5"/>
				<stop  offset="1" style="stop-color:#FFFFFF"/>
			</linearGradient>
			<polygon fill="url(#SVGID_4_)" points="61.251,161.714 271.943,161.714 267.785,202.836 66.333,202.836 			"/>
			<polygon opacity="0.05" points="167.521,161.714 61.251,161.714 66.333,202.836 167.521,202.836 			"/>
		</g>
	</g>
</g>
</svg>
