<?xml version="1.0" encoding="utf-8"?>
<!-- Generator: Adobe Illustrator 17.0.0, SVG Export Plug-In . SVG Version: 6.00 Build 0)  -->
<!DOCTYPE svg PUBLIC "-//W3C//DTD SVG 1.1//EN" "http://www.w3.org/Graphics/SVG/1.1/DTD/svg11.dtd">
<svg version="1.1" id="Layer_1" xmlns="http://www.w3.org/2000/svg" xmlns:xlink="http://www.w3.org/1999/xlink" x="0px" y="0px"
	 width="408px" height="560px" viewBox="274.5 0 408 560" enable-background="new 274.5 0 408 560" xml:space="preserve">
<title>HTML5 Logo</title>
<polygon fill="#E44D26" points="317.736,515.022 281.63,110.053 678.37,110.053 642.226,514.958 479.757,560 "/>
<polygon fill="#F16529" points="480,525.572 611.283,489.175 642.17,143.165 480,143.165 "/>
<polygon fill="#EBEBEB" points="480,293.362 414.277,293.362 409.737,242.502 480,242.502 480,192.834 479.828,192.834 
	355.457,192.834 356.646,206.159 368.853,343.03 480,343.03 "/>
<polygon fill="#EBEBEB" points="480,422.355 479.782,422.413 424.467,407.477 420.931,367.864 394.052,367.864 371.072,367.864 
	378.031,445.85 479.771,474.094 480,474.03 "/>
<path d="M318.543,0h25.24v24.938h23.089V0h25.242v75.517h-25.24V50.229h-23.089v25.288h-25.24V0H318.543z"/>
<path d="M425.306,25.042h-22.221V0h69.694v25.042h-22.23v50.474h-25.242V25.042H425.306z"/>
<path d="M483.84,0h26.319l16.19,26.534L542.522,0h26.329v75.517h-25.137v-37.43l-17.365,26.85h-0.434l-17.378-26.85v37.43H483.84V0z
	"/>
<path d="M581.412,0h25.248v50.555h35.495v24.962h-60.744V0z"/>
<polygon fill="#FFFFFF" points="479.828,293.362 479.828,343.03 540.989,343.03 535.223,407.445 479.828,422.396 479.828,474.07 
	581.65,445.85 582.397,437.458 594.068,306.7 595.28,293.362 581.896,293.362 "/>
<polygon fill="#FFFFFF" points="479.828,192.834 479.828,223.682 479.828,242.38 479.828,242.502 599.64,242.502 599.64,242.502 
	599.8,242.502 600.796,231.338 603.059,206.159 604.247,192.834 "/>
</svg>
