<?xml version="1.0" encoding="utf-8"?>
<!-- Generator: Adobe Illustrator 17.0.0, SVG Export Plug-In . SVG Version: 6.00 Build 0)  -->
<!DOCTYPE svg PUBLIC "-//W3C//DTD SVG 1.1//EN" "http://www.w3.org/Graphics/SVG/1.1/DTD/svg11.dtd">
<svg version="1.1" id="Layer_1" xmlns="http://www.w3.org/2000/svg" xmlns:xlink="http://www.w3.org/1999/xlink" x="0px" y="0px"
	 width="528.504px" height="125.994px" viewBox="0 0 528.504 125.994" enable-background="new 0 0 528.504 125.994"
	 xml:space="preserve">
<g>
	<path fill="#231F20" d="M506.665,15.223l21.839,0.121c0,0-40.603,55.018-43.918,59.502c-1.077,1.452-2.713,3.018-3.542,4.959
		c-2.097,4.88-4.25,15.584-4.25,15.584l-19.982,0.099c0,0,3.109-11.157,2.981-17.1c-0.113-5.192-2.763-10.378-4.25-15.584
		c-1.502-5.27-3.542-15.584-3.542-15.584h20.543l2.833,11.334L506.665,15.223L506.665,15.223z"/>
	<path fill="#231F20" d="M465.312,26.826c4.03,2.43,6.503,15.832,6.503,15.832s-21.088,0.311-32.564,0.311c-2.678,0-9.917,0-9.917,0
		l-12.042,52.418h-18.417c0,0,11.461-56.966,14.167-67.294c0.878-3.343,6.007-2.77,14.67-2.77c4.257,0,10.342,0,13.834,0
		C450.479,25.324,460.92,24.184,465.312,26.826L465.312,26.826z"/>
	<path fill="#231F20" d="M379.572,52.355c0,0,0.574-3.365-1.948-7.261c-2.153-3.322-4.143-4.094-9.81-4.272
		c-16.002-0.503-15.691,11.355-15.691,11.355L379.572,52.355L379.572,52.355z M396.927,38.776
		c2.345,8.458-2.125,28.334-2.125,28.334s-23.341-0.39-36.126,0c-3.975,0.121-8.734-0.432-9.917,1.417
		c-1.665,2.592,0.608,6.581,2.535,8.266c2.218,1.941,6.538,2.161,8.09,2.359c10.377,1.318,32.096,0.34,32.096,0.34l-3.762,16.66
		c0,0-30.692,1.537-46.043-2.125c-3.031-0.722-5.872-2.182-7.792-4.25c-0.524-0.567-0.978-1.339-1.474-2.005
		c-0.396-0.531-1.55-2.281-2.068-3.662c-3.506-9.343,0.411-27.243,4.25-36.834c0.446-1.112,1.006-2.522,1.595-3.719
		c0.736-1.495,1.359-3.181,1.947-4.073c0.396-0.616,0.886-1.013,1.297-1.594c0.474-0.687,1.026-1.353,1.537-1.948
		c1.416-1.644,3.024-2.805,4.958-4.25c6.396-4.789,17.971-8.508,31.876-7.084c5.235,0.539,13.141,2.409,17.001,7.792
		C395.836,33.839,396.346,36.693,396.927,38.776L396.927,38.776z"/>
	<g>
		<defs>
			<rect id="SVGID_1_" x="8.382" y="6.487" width="520.122" height="161.921"/>
		</defs>
		<clipPath id="SVGID_2_">
			<use xlink:href="#SVGID_1_"  overflow="visible"/>
		</clipPath>
		<path clip-path="url(#SVGID_2_)" fill="#231F20" d="M312.455,25.26l17.858-0.106c0,0-9.952,47.212-15.024,70.234
			c-7.7,0-14.21,0-20.543,0c-14.358,0-27.144,1.778-32.584-8.5c-5.277-9.98-0.241-26.393,2.125-37.543
			c1.672-7.891,5.193-24.02,5.193-24.02l18.502-0.17c0,0-5.228,25.111-7.403,37.649c-0.779,4.491-2.386,8.72-0.708,12.042
			c1.594,3.159,3.825,3.386,10.625,3.542c2.154,0.049,9.209,0,9.209,0L312.455,25.26L312.455,25.26z"/>
		<path clip-path="url(#SVGID_2_)" fill="#231F20" d="M228.869,59.261c1.87-6.644,4.597-13.848,4.25-19.834
			c-0.375-6.403-5.744-12.233-9.208-13.458c-10.434-3.684-20.202,1.466-24.084,5.667c-5.023,5.44-6.723,11.794-8.501,20.542
			c-1.324,6.496-2.408,13.353,0,18.418c4.264,8.954,17.56,6.999,31.876,7.083C225.327,71.984,227.084,65.587,228.869,59.261
			L228.869,59.261z M253.662,33.052c2.04,14.833-5.787,31.203-11.178,45.441c5.497,0.496,10.314-0.078,10.661,0.333
			c0.361,0.531-3.684,16.994-5.094,17.036c-4.363,0.113-18.82,0.233-24.849,0.233c-19.671,0-38.074,1.282-47.459-8.5
			c-3.811-3.974-6.446-10.789-7.084-15.584c-1.063-8.004,0.269-16.816,2.125-24.084c1.679-6.56,3.832-12.75,7.084-18.417
			c8.266-14.429,22.646-25.139,46.751-22.667c4.675,0.482,11.39,2.529,15.584,4.958c0.29,0.17,1.304,0.978,1.537,1.12
			C247.407,16.527,252.571,25.133,253.662,33.052L253.662,33.052z"/>
	</g>
	<path fill="#231F20" d="M166.626,25.345c-1.19,5.419-2.38,11.56-3.634,16.915c-6.609,0-13.225,0-19.834,0
		c1.537-5.936,2.713-11.836,4.25-17.001C153.755,25.26,159.656,25.345,166.626,25.345L166.626,25.345z"/>
	<g>
		<defs>
			<rect id="SVGID_3_" x="8.382" y="6.487" width="520.122" height="161.921"/>
		</defs>
		<clipPath id="SVGID_4_">
			<use xlink:href="#SVGID_3_"  overflow="visible"/>
		</clipPath>
		<path clip-path="url(#SVGID_4_)" fill="#231F20" d="M142.45,47.219c6.375,0,12.75,0,19.125,0
			c-2.5,13.841-7.451,36.169-11.333,51.71c-2.43,9.726-4.052,16.824-10.626,21.959c-0.588,0.461-0.927,0.242-1.416,0.709
			c-1.212,1.155-6.815,2.494-9.917,2.833c-5.044,0.546-10.746,0.071-16.944-0.056c1.622-5.929,3.457-13.048,4.902-18.361
			c15.109,1.828,15.492-12.453,18.417-26.209C136.351,71.856,141.48,50.407,142.45,47.219L142.45,47.219z"/>
		<path clip-path="url(#SVGID_4_)" fill="#136BB0" d="M97.823,83.346l-0.411,1.063c-6.984,13.6-19.359,21.945-37.012,22.313
			c-8.252,0.17-16.115-1.947-21.251-4.25c-11.086-4.98-20.408-14.217-25.501-24.084c-7.303-14.146-8.621-33.824,6.566-48.523
			c0.234,0-1.842,3.187-1.608,3.187l-0.418,1.36C7.246,68.675,40.963,98.037,73.739,94.679
			C81.616,93.872,91.661,89.558,97.823,83.346L97.823,83.346z"/>
	</g>
	<path fill="#136BB0" d="M99.12,40.575c-1.282,2.94-8.663,8.494-11.922,9.188c-12.906,2.749-21.172-3.372-25.501-10.335
		c-0.645-1.041-1.835-3.882-2.047-4.604c-1.679-5.709-0.907-14.344,4.102-18.814c-1.509,4.25-1.728,9.187-0.935,12.396
		c0.481,1.941,1.948,5.327,3.414,7.459c2.67,3.882,4.364,4.824,7.792,6.885c1.544,0.928,3.202,1.672,3.917,1.877
		C81.191,45.583,88.055,48.105,99.12,40.575L99.12,40.575z"/>
	<path fill="#136BB0" d="M77.989,69.178c8.245,0.057,16.859-3.797,21.959-9.208c-4.462,11.327-17.383,18.608-34.71,16.292
		c-14.507-1.941-28.327-16.54-29.751-31.167c-1.041-10.647,2.67-17.001,8.784-24.708c-2.125,4.031-2.918,7.14-3.117,9.124
		C38.832,52.539,59.551,69.058,77.989,69.178L77.989,69.178z"/>
</g>
</svg>
