<?xml version="1.0" standalone="no"?>
<!DOCTYPE svg PUBLIC "-//W3C//DTD SVG 1.1//EN" "http://www.w3.org/Graphics/SVG/1.1/DTD/svg11.dtd" >
<svg xmlns="http://www.w3.org/2000/svg">
<metadata></metadata>
<defs>
<font id="youngitalic" horiz-adv-x="1257" >
<font-face units-per-em="2048" ascent="1536" descent="-512" />
<missing-glyph horiz-adv-x="415" />
<glyph horiz-adv-x="2048" />
<glyph horiz-adv-x="2048" />
<glyph unicode="&#xd;" horiz-adv-x="2048" />
<glyph unicode=" "  horiz-adv-x="415" />
<glyph unicode="&#x09;" horiz-adv-x="415" />
<glyph unicode="&#xa0;" horiz-adv-x="415" />
<glyph unicode="!" horiz-adv-x="475" d="M0 94q12 47 54 80t89 33t70.5 -33t11.5 -80t-53 -79.5t-88 -32.5t-70.5 32.5t-13.5 79.5zM123 346l115 563l139 525h188l-139 -525l-188 -563h-115z" />
<glyph unicode="&#x22;" horiz-adv-x="860" d="M49 1098l279 444l155 -78l-342 -415zM371 1098l276 444l156 -78l-340 -415z" />
<glyph unicode="#" horiz-adv-x="1267" d="M0 0l164 389h-146l45 170h173l120 283h-145l45 170h174l172 403l170 -14l-168 -389h391l172 403l170 -14l-168 -389h150l-45 -170h-176l-121 -283h149l-45 -170h-176l-174 -405l-168 16l166 389h-389l-174 -405zM412 559h389l123 283h-392z" />
<glyph unicode="$" horiz-adv-x="1167" d="M-23.5 238.5q-13.5 66.5 5.5 140.5h168q-18 -78 32.5 -140.5t151.5 -84.5l12 -2l143 538l-6 2q-68 18 -133 45t-111 69t-63.5 105.5t6.5 155.5q20 80 66.5 146.5t113 117.5t148.5 84t176 43l10 2l41 150h168l-43 -156l8 -2q76 -16 133.5 -52t91 -88t43 -117t-9.5 -138 h-170q18 74 -14 135q-37 57 -117 86l-12 2l-123 -461h8q119 -41 187.5 -94t99.5 -110.5t32 -117t-13 -110.5q-20 -74 -69.5 -142.5t-120.5 -122.5t-159 -91t-182 -51h-8l-43 -160h-168l43 160h-8q-86 14 -151.5 50t-107.5 89t-55.5 119.5zM356 1067q-20 -72 17 -115t153 -82 l11 -4l114 422l-14 -2q-106 -16 -182 -74.5t-99 -144.5zM514 152l12 2q115 23 199 88t106 145q43 162 -174 250l-12 6z" />
<glyph unicode="%" horiz-adv-x="1761" d="M146.5 932.5q-11.5 66.5 9.5 142.5q20 76 67 142.5t110.5 116.5t137.5 79t150 29t135 -29t96 -79t47 -116.5t-10 -142.5t-66.5 -142.5t-110 -116.5t-138 -78.5t-150.5 -28.5t-134.5 28.5t-95 78.5t-48 116.5zM274 2l1074 1499l137 -69l-1073 -1500zM330 1075 q-20 -82 18.5 -140t120.5 -58t153.5 58t92.5 140q23 82 -17.5 140.5t-122.5 58.5t-152.5 -58.5t-92.5 -140.5zM848 179.5q-10 66.5 10 142.5t66.5 142t110 116.5t139 79t151.5 28.5t134.5 -28.5t95 -79t48 -117t-9.5 -141.5q-20 -76 -67 -142.5t-110.5 -117t-137.5 -79 t-150 -28.5t-136 28.5t-97 79t-47 117zM1032 322q-23 -82 17.5 -140.5t124.5 -58.5q82 0 152.5 58.5t92.5 140.5q23 82 -17 140t-122 58q-84 0 -154.5 -58.5t-93.5 -139.5z" />
<glyph unicode="&#x26;" horiz-adv-x="1187" d="M-43 211q-2 55 15.5 118.5t61.5 131t124 134.5t204 128q-6 10 -8 12q-14 27 -28.5 82t-16.5 123t15.5 141.5t64.5 137.5q18 27 47 53t69 48.5t92 37t118 14.5q125 0 191.5 -60.5t60.5 -170.5q-6 -63 -34 -129t-74 -127.5t-106.5 -116.5t-129.5 -94q70 -109 178 -277 q35 45 70.5 94.5t72.5 106.5l143 -57q-49 -78 -99 -146.5t-103 -128.5q29 -45 59.5 -91t63.5 -97l-156 -115q-25 41 -50.5 82t-53.5 82q-72 -61 -146 -95t-142.5 -50.5t-131 -18.5t-113.5 2q-57 4 -103 24.5t-81 53.5t-54.5 76t-19.5 92zM131 256q0 -47 41 -82t98 -39 q131 -10 224.5 17.5t171.5 99.5q-63 98 -121 186t-101 156q-119 -53 -183 -105.5t-92 -97.5t-34 -81t-4 -54zM486 982q1 -44 9.5 -81t20.5 -55q4 -12 25 -45q53 27 97 64.5t77 79.5t52 84t24 79v24.5t-11.5 32t-37 26.5t-72.5 11q-39 0 -65.5 -7t-43 -16.5t-25 -18.5 t-12.5 -13q-23 -33 -31 -77t-7 -88z" />
<glyph unicode="'" horiz-adv-x="602" d="M131 1098l279 444l155 -78l-340 -415z" />
<glyph unicode="(" horiz-adv-x="419" d="M-48 -137q7 135 37.5 344t108.5 500l6 18q78 291 158 500t145.5 344t107.5 200.5t46 71.5l137 -76l-38 -61q-39 -62 -99.5 -188.5t-135.5 -324.5t-149 -474q-76 -276 -106.5 -475t-38.5 -326t-2 -188l6 -62l-176 -74q0 4 -7 70t0 201z" />
<glyph unicode=")" horiz-adv-x="417" d="M-281 -334l68 -37l-68 37q0 2 39 62.5t99.5 188.5t134.5 325.5t149 474.5q74 276 103.5 474t39 326t3.5 188t-6 62l178 74q0 -6 7 -71.5t-1 -200.5t-39 -344t-109 -500l-6 -18q-78 -291 -157.5 -499t-144 -343t-106.5 -201t-46 -72z" />
<glyph unicode="*" horiz-adv-x="778" d="M106 1286l66 109l176 -64l55 205h115l-55 -205l213 64l4 -109l-211 -63l76 -166l-109 -66l-76 166l-165 -166l-74 66l164 166z" />
<glyph unicode="+" horiz-adv-x="1103" d="M39 406l45 169h405l109 404h170l-109 -404h406l-45 -169h-406l-110 -406h-170l110 406h-405z" />
<glyph unicode="," horiz-adv-x="417" d="M-72 -197l277 445l153 -80l-340 -414z" />
<glyph unicode="-" horiz-adv-x="745" d="M37 408l47 170h623l-48 -170h-622z" />
<glyph unicode="." horiz-adv-x="430" d="M102 94q12 47 53.5 80t88.5 33t71.5 -33t12.5 -80q-14 -47 -55.5 -79.5t-88.5 -32.5t-71.5 32.5t-10.5 79.5z" />
<glyph unicode="/" horiz-adv-x="729" d="M-387 -350l1358 2191l147 -57l-1360 -2190z" />
<glyph unicode="0" horiz-adv-x="1105" d="M80 338q2 119 43 266q39 147 100.5 266t139 202t169 128t191.5 45q98 0 166.5 -45t102.5 -128t32 -201.5t-41 -266.5q-41 -147 -102.5 -266t-140 -202t-170 -128t-189.5 -45q-100 0 -169 45t-101.5 128t-30.5 202zM258 327.5q2 -53.5 19.5 -96.5t52.5 -70.5t96 -27.5 q59 0 109.5 27.5t90.5 70.5t70.5 96.5t53 105.5t37 97t22.5 74q6 27 16.5 73t16.5 98t4 105.5t-19.5 96.5t-53.5 70.5t-95 27.5q-61 0 -110.5 -27.5t-89.5 -70.5t-70.5 -96.5t-53 -105.5t-37 -98t-20.5 -73q-8 -29 -18.5 -74t-16.5 -97t-4 -105.5z" />
<glyph unicode="1" horiz-adv-x="647" d="M106 0l256 958l-133 -110l-92 117l291 241h174l-321 -1206h-175z" />
<glyph unicode="2" horiz-adv-x="1017" d="M-145 0l182 145q133 104 236.5 180t183.5 136q94 68 152.5 114t95 81.5t54 69.5t29.5 77q14 55 8.5 105t-30.5 87t-64.5 58.5t-93.5 21.5q-98 0 -186 -65.5t-131 -163.5l-160 31q33 78 89 145.5t125 116.5t148.5 77.5t159.5 28.5q88 0 157 -34.5t111 -95t54 -140.5 t-12 -172q-20 -74 -53 -129.5t-84.5 -107.5t-122 -106t-164.5 -124q-51 -35 -105.5 -76t-120.5 -90h478l-46 -170h-890z" />
<glyph unicode="3" horiz-adv-x="1077" d="M-2 195l170 77q12 -59 77.5 -100t164.5 -41q57 0 111 15.5t98.5 41t75 61.5t42.5 77q10 41 -2 75.5t-41.5 61t-76 41t-103.5 14.5h-31h-71l-11 127l50 43l393 348h-531l45 170h676h78l-45 -170l-403 -358q70 -14 124 -46t84.5 -78t40 -104.5t-7.5 -123.5 q-23 -78 -74 -144.5t-123.5 -115t-160.5 -76t-182 -27.5q-74 0 -136.5 17.5t-109.5 48t-79 72.5t-42 94z" />
<glyph unicode="4" horiz-adv-x="1091" d="M18 297l48 170l737 739h2h131h43l-8 -30l-4 -19l-185 -690h123l-47 -170h-123l-78 -297h-176l78 297h-455h-86zM276 467h330l121 451z" />
<glyph unicode="5" horiz-adv-x="1097" d="M-4 184l80 37l90 41q6 -16 21.5 -38.5t43.5 -45.5q31 -20 76 -33.5t113 -13.5q100 0 163.5 28.5t99.5 63.5t50.5 64.5t14.5 31.5q14 41 22 92.5t-20 92.5q-49 72 -213 65q-45 -2 -94.5 -9t-98.5 -17q-18 -4 -34.5 -7.5t-35.5 -7.5l-79 84l20 64l111 360l53 170h168h532 l-45 -170h-534l-99 -317q45 8 89.5 13t89.5 7q239 7 323 -118q80 -121 15 -314q-16 -45 -54.5 -104.5t-105 -112.5t-161.5 -90t-222 -37q-119 0 -199 33q-49 18 -83 46t-54 56q-18 23 -28.5 45.5t-14.5 40.5z" />
<glyph unicode="6" horiz-adv-x="1079" d="M32 258.5q-5 81.5 21 167.5l2 4q12 39 43 111.5t108 175t213 234.5t359 292l80 -127q-115 -82 -202 -153.5t-150 -135.5q55 13 121 9q88 -6 155.5 -45t105.5 -102.5t46 -144.5t-23 -171q-29 -86 -84 -161t-128.5 -130t-159.5 -87t-172 -32h-27q-84 6 -149.5 42t-106.5 97 q-4 2 -4 4.5t-2 4.5q-41 66 -46 147.5zM209 313.5q2 -49.5 27 -90.5q51 -84 159 -90q53 -4 107.5 14.5t101.5 52t82 81t55 102.5q18 55 14.5 105.5t-26 88t-63.5 61.5t-95 28q-6 2 -16 2q-53 0 -104.5 -19.5t-96.5 -53.5t-78.5 -80t-50.5 -99q-18 -53 -16 -102.5z" />
<glyph unicode="7" horiz-adv-x="956" d="M76 31l719 1005h-613l45 170h688h187l-121 -170l-768 -1073z" />
<glyph unicode="8" horiz-adv-x="1105" d="M66.5 198.5q-13.5 69.5 7.5 149.5q25 88 83 164t138 129q-39 47 -51.5 111.5t8.5 138.5q20 74 67.5 138.5t111 112.5t139 75.5t153.5 27.5t139.5 -27.5t100 -75.5t51 -112.5t-7.5 -138.5t-68 -138.5t-111 -111.5q51 -53 71 -129t-5 -164q-20 -80 -72.5 -149.5 t-121 -121.5t-151.5 -83t-167 -31t-150.5 31t-108.5 83t-55.5 121.5zM244 264q8 -39 31.5 -68.5t62.5 -46t88 -16.5t96 16.5t87 46t69 68.5t41 84q18 68 -7.5 122t-84.5 77q-41 16 -86 16t-95 -16q-72 -23 -126 -77t-72 -122q-12 -45 -4 -84zM426 891q-14 -55 5.5 -99 t66.5 -67q33 -18 82 -18q47 0 92 18q59 23 102 67t57 99q10 39 4 72.5t-27.5 58.5t-54 39t-75.5 14t-84 -14t-75 -39t-58.5 -58.5t-34.5 -72.5z" />
<glyph unicode="9" horiz-adv-x="1077" d="M140 663.5q-7 81.5 24 172.5q29 86 84 160.5t129 130t160 87t172 31.5h26q86 -4 150.5 -41t105.5 -98l3 -3t3 -5q41 -66 46.5 -147t-21.5 -169l-2 -4q-12 -41 -44 -112.5t-108.5 -174t-213 -234.5t-359.5 -292l-78 127q115 82 202 153.5t150 137.5q-31 -8 -60 -10t-60 0 q-88 6 -156 45t-107 101.5t-46 144zM320 720q4 -50 26.5 -88t63.5 -62.5t94 -26.5q4 0 8 -1t8 -1q53 0 104.5 19.5t96.5 53t77.5 79.5t51.5 100q18 53 16 103t-26 91q-49 82 -160 88q-53 4 -107.5 -14.5t-101.5 -52t-83 -81t-54 -102.5t-14 -105z" />
<glyph unicode=":" horiz-adv-x="430" d="M8 94q12 47 54 80t90 33q47 0 70 -33t11 -80t-54 -79.5t-89 -32.5t-69.5 32.5t-12.5 79.5zM195 793q12 47 54 79.5t89 32.5t70.5 -32.5t11.5 -79.5t-54 -81t-90 -34q-47 0 -70.5 33.5t-10.5 81.5z" />
<glyph unicode=";" horiz-adv-x="430" d="M-160 -197l277 445l153 -80l-338 -414zM225 793q12 47 54.5 79.5t89.5 32.5t70.5 -32.5t11.5 -79.5t-54.5 -80t-89.5 -33t-70.5 32.5t-11.5 80.5z" />
<glyph unicode="&#x3c;" horiz-adv-x="1103" d="M37 406l47 169l1094 422l-50 -184l-835 -321l661 -324l-49 -184z" />
<glyph unicode="=" horiz-adv-x="1224" d="M39 180l45 170h979l-45 -170h-979zM160 633l45 170h979l-45 -170h-979z" />
<glyph unicode="&#x3e;" horiz-adv-x="1101" d="M-74 -16l49 184l834 324l-662 321l50 186l864 -424l-43 -167z" />
<glyph unicode="?" horiz-adv-x="1021" d="M100 1020q84 205 236.5 318.5t339.5 113.5q94 0 168 -35t122 -95t61 -141t-11 -173q-25 -94 -65 -160t-86 -112t-97 -76.5t-98 -57.5q-41 -25 -76 -46t-63.5 -49t-50.5 -66t-36 -95h-168q25 92 64 155.5t84 108.5t95 76t97 57q41 23 76 45.5t62.5 51t50 68.5t37.5 100 q16 57 7 107t-37 87t-75 58.5t-108 21.5q-78 0 -137.5 -26.5t-103.5 -67.5t-75.5 -92.5t-50.5 -100.5zM180 96q12 47 54 80t90 33q47 0 70.5 -33t11.5 -80t-54.5 -79.5t-89.5 -32.5t-70.5 32.5t-11.5 79.5z" />
<glyph unicode="@" horiz-adv-x="1550" d="M62.5 399q-21.5 131 17.5 279q41 147 132 278t214 228.5t269.5 154t293.5 56.5q141 0 247.5 -57.5t160.5 -161.5q55 -109 45 -245t-84 -278q-43 -82 -101.5 -146.5t-123 -109.5t-130 -69.5t-116.5 -24.5h-19.5t-17.5 2q-53 12 -74 57l-12 25l-29 -16q-94 -55 -178 -56 q-102 0 -147 78q-29 49 -28 120t32 151q31 74 81 139t109.5 114.5t124 77t125.5 27.5q57 0 102 -29q10 -8 13 -12l4 -8l6 -23l45 109l125 -19l-203 -491q-6 -16 -10 -29.5t-6 -23.5q-10 -33 5 -42.5t23 -11.5q27 -4 64 19q14 8 42 25.5t57.5 44t61 64.5t58.5 89 q53 104 64.5 203.5t-21.5 181.5l-2 8l-8 19q-43 80 -122 123t-189 45h-2h-7q-121 0 -238.5 -46.5t-218 -126t-175 -186t-107.5 -227.5q-31 -121 -13.5 -227.5t75 -186.5t150.5 -126t214 -46q104 0 188 16.5t156 46t134.5 71.5t119.5 93l80 -81q-166 -145 -335 -210t-378 -65 q-147 0 -263 56.5t-187.5 152.5t-93 227zM524 569.5q-2 -49.5 17 -82.5q10 -23 31.5 -33t45.5 -10q59 0 127 56.5t109 140.5l18 49q35 106 -4 164q-27 37 -75 37q-33 0 -68 -17.5t-68.5 -47t-62.5 -69.5t-45 -85q-23 -53 -25 -102.5z" />
<glyph unicode="A" horiz-adv-x="1435" d="M-170 0l985 1434h186l222 -1434h-203l-64 412h-641l-282 -412h-203zM444 600h482l-86 569z" />
<glyph unicode="B" horiz-adv-x="1318" d="M12 0l383 1434h492q84 0 149.5 -32t106.5 -87t52 -129q4 -25 3 -50q0 -52 -14 -108q-20 -78 -64.5 -145.5t-105.5 -120.5q82 -52 116 -146q18 -50 17 -105q0 -50 -14 -105q-23 -84 -75 -158t-122 -129.5t-152 -87t-166 -31.5h-606zM254 188h414q45 0 88 17.5t79.5 47.5 t63.5 68.5t39 84.5q8 30 8 58q0 14 -2 26q-6 40 -26.5 69t-54.5 46.5t-79 17.5h-413zM422 811h299q92 0 168.5 63.5t101.5 153.5q9 33 9 63q0 51 -27 91q-43 64 -135 63h-299z" />
<glyph unicode="C" horiz-adv-x="1589" d="M82 424q-8 47 -8 96q0 94 28 197q41 156 137.5 293t226.5 239.5t282.5 161.5t308.5 59q199 0 340 -93t198 -249l-184 -104q-45 117 -151.5 187.5t-253.5 70.5q-117 0 -229.5 -44t-210 -121t-169 -180t-102.5 -220q-22 -78 -22 -150q-1 -37 5 -71q16 -104 73 -180 t147 -120t207 -44q147 0 290.5 70.5t249.5 187.5l131 -103q-70 -78 -154.5 -141.5t-179 -108.5t-192.5 -69.5t-197 -24.5q-156 0 -277.5 59.5t-196.5 162t-97 239.5z" />
<glyph unicode="D" horiz-adv-x="1431" d="M12 0l383 1434h410q147 0 263 -56.5t186 -153.5q70 -98 92 -229q8 -47 8 -95q0 -88 -25 -183q-41 -147 -132 -278.5t-215 -228.5t-268.5 -153.5t-291.5 -56.5h-410zM254 188h217q109 0 215.5 42t196.5 114t156.5 168t97.5 205q19 71 19 137q0 35 -6 68q-16 96 -67 167.5 t-135 113.5t-192 42h-217z" />
<glyph unicode="E" horiz-adv-x="1263" d="M12 0l383 1434h957l-49 -189h-762l-117 -434h706l-51 -188h-706l-117 -435h762l-49 -188h-957z" />
<glyph unicode="F" d="M12 0l383 1434h951l-50 -189h-757l-142 -528h615l-51 -189h-615l-141 -528h-193z" />
<glyph unicode="G" horiz-adv-x="1712" d="M82 424q-8 47 -8 96q0 95 28 197q41 156 137.5 293t225.5 239.5t281.5 161.5t310.5 59q199 0 340 -93t198 -249l-184 -104q-45 117 -151.5 187.5t-253.5 70.5q-117 0 -229.5 -44t-210 -121t-169 -180t-102.5 -220q-22 -78 -22 -150q0 -36 5 -71q17 -103 73.5 -179.5 t146.5 -120.5t207 -44q88 0 177 26.5t170 74.5t151.5 113.5t123.5 145.5h-409l49 188h637q-45 -154 -141.5 -287.5t-225.5 -234t-279.5 -158t-304.5 -57.5q-158 0 -279.5 59.5t-195.5 162t-96 239.5z" />
<glyph unicode="H" horiz-adv-x="1503" d="M12 0l383 1434h193l-166 -623h708l166 623h193l-383 -1434h-193l166 623h-708l-166 -623h-193z" />
<glyph unicode="I" horiz-adv-x="602" d="M12 0l383 1434h193l-383 -1434h-193z" />
<glyph unicode="J" horiz-adv-x="950" d="M-133 121l186 104q16 -31 48 -52t85 -21q23 0 61 4t81 30.5t84 84t69 163.5l269 1000h192l-268 -1000q-59 -223 -201.5 -347t-337.5 -124q-111 0 -174 46t-94 112z" />
<glyph unicode="K" horiz-adv-x="1286" d="M12 0l383 1432h193l-223 -834l856 834h235l-731 -715l352 -717h-237l-277 561l-282 -274l-76 -287h-193z" />
<glyph unicode="L" horiz-adv-x="1126" d="M12 0l383 1434h193l-334 -1246h709l-50 -188h-901z" />
<glyph unicode="M" horiz-adv-x="1726" d="M-6 0l381 1434h192v-2l271 -764l680 764l2 2h192l-383 -1434h-194l286 1075l-680 -764l-270 764l-287 -1075h-190z" />
<glyph unicode="N" horiz-adv-x="1468" d="M-6 0l381 1434h190l424 -1086l291 1086h195l-383 -1434h-191l-426 1087l-291 -1087h-190z" />
<glyph unicode="O" horiz-adv-x="1712" d="M82 424q-8 47 -8 96q0 94 28 197q41 156 137.5 293t225.5 239.5t281.5 161.5t310.5 59q156 0 277.5 -59t196.5 -161t97 -240q8 -49 8 -100q0 -93 -26 -193q-43 -156 -139.5 -293t-226.5 -239.5t-282.5 -162t-308.5 -59.5q-158 0 -279.5 59.5t-195.5 162t-96 239.5z M278 496q16 -104 72 -180t147 -120t208 -44t229.5 44t208.5 120.5t167.5 180t104.5 220.5q20 76 20 146q1 37 -5 73q-16 102 -71.5 179t-146 122t-206.5 45q-117 0 -230.5 -45t-210 -122t-168 -179t-102.5 -219q-22 -78 -22 -150q-1 -37 5 -71z" />
<glyph unicode="P" horiz-adv-x="1372" d="M12 0l383 1432h566q102 0 183 -39t130 -107q48 -66 64 -158q6 -33 6 -69q0 -61 -17 -125q-29 -104 -92.5 -195.5t-149.5 -159t-187 -106.5t-204 -39h-372l-117 -434h-193zM371 623h372q63 0 126 24.5t116 66.5t91 98t57 122q11 42 11 81q0 21 -3 39q-8 56 -39 98 t-80 66.5t-113 24.5h-372z" />
<glyph unicode="Q" horiz-adv-x="1794" d="M82 424q-8 47 -8 96q0 95 28 197q41 156 137.5 293t226.5 239.5t282.5 161.5t308.5 59t277.5 -59t196.5 -161.5t97 -239.5q8 -49 8 -100q0 -93 -26 -193q-33 -121 -97.5 -229.5t-154.5 -200.5l172 -172l-162 -152l-178 180q-123 -86 -259 -133t-278 -47 q-156 0 -277.5 59.5t-196.5 162t-97 239.5zM278 496q17 -103 73.5 -179.5t146.5 -120.5t207 -44q96 0 187 29.5t177 82.5l-151 154l159 151l164 -163q61 68 106.5 146.5t69.5 164.5q20 76 20 146q0 38 -5 73q-17 102 -73 179t-146.5 122t-206.5 45q-117 0 -229.5 -45 t-210 -122t-169 -179t-102.5 -219q-22 -78 -22 -150q0 -36 5 -71z" />
<glyph unicode="R" horiz-adv-x="1292" d="M12 0l383 1434h613q92 0 165.5 -36t118.5 -98q44 -61 58 -144q5 -29 5 -59q0 -56 -16 -116q-23 -86 -74 -163t-119.5 -136t-150.5 -98t-168 -52l248 -532h-239l-246 528h-244l-141 -528h-193zM397 717h420q55 0 107.5 20.5t96.5 56t76.5 84t47.5 103.5q10 38 10 74 q0 15 -2 29q-6 48 -31.5 84t-66.5 56.5t-97 20.5h-419z" />
<glyph unicode="S" horiz-adv-x="1167" d="M-37 340l178 35q2 -94 79 -158.5t210 -64.5q68 0 133.5 18t117.5 51t90 75t50 91q7 25 7 49q0 151 -283 228q-78 20 -157 46.5t-136 70.5t-84 112q-13 33 -13 74q0 44 15 98q25 88 79 163t133 128t176 83.5t206 30.5q96 0 173 -28.5t127 -78.5q50 -51 72 -119 q14 -44 13 -93q0 -28 -4 -57l-180 -37v11q1 90 -59 150q-64 64 -193 64q-137 0 -230.5 -61.5t-117.5 -155.5q-7 -25 -7 -46q0 -11 2 -21q5 -30 34.5 -54t88 -47.5t154.5 -50.5q145 -39 228 -94.5t121 -117.5t40 -126v-16q0 -55 -12 -105q-23 -88 -84.5 -165t-147.5 -134 t-190.5 -91t-212.5 -34q-100 0 -182 28.5t-137 80.5q-56 52 -82 120q-18 49 -18 104q0 21 3 44z" />
<glyph unicode="T" horiz-adv-x="1085" d="M162 1251l49 183h1044l-49 -183h-426l-334 -1251h-192l334 1251h-426z" />
<glyph unicode="U" horiz-adv-x="1603" d="M184 623l217 811h195l-88 -328l-127 -469l-2 -14q-30 -111 -30 -195q0 -276 317 -276q96 0 171.5 27.5t133 70.5t98.5 96t68.5 105.5t44 97.5t24.5 74l129 483l88 328h193l-217 -811q-41 -152 -117 -274t-178.5 -208t-227 -132t-262.5 -46q-290 0 -402 172 q-64 98 -64 243q0 109 36 245z" />
<glyph unicode="V" horiz-adv-x="1435" d="M211 1434h205l180 -1170l805 1170h205l-988 -1434h-186z" />
<glyph unicode="W" horiz-adv-x="1857" d="M211 1434h195l18 -1088l600 1088h190l17 -1088l600 1088h197l-791 -1434h-195l-18 1077l-594 -1077h-194z" />
<glyph unicode="X" horiz-adv-x="1185" d="M-170 0l651 717l-270 717h223l205 -543l494 543h223l-651 -717l268 -717h-223l-203 543l-494 -543h-223z" />
<glyph unicode="Y" horiz-adv-x="1185" d="M160 1434h225l231 -621l564 621h225l-746 -820l-163 -614h-193l164 614z" />
<glyph unicode="Z" horiz-adv-x="1155" d="M-88 0l49 186l2 2l998 1055h-719l51 189h950l-49 -185l-1004 -1059h721l-51 -188h-948z" />
<glyph unicode="[" horiz-adv-x="583" d="M-88 -377l586 2187h471l-47 -170h-297l-494 -1847h297l-47 -170h-469z" />
<glyph unicode="\" horiz-adv-x="765" d="M217 1786l174 55l191 -2189l-174 -58z" />
<glyph unicode="]" horiz-adv-x="583" d="M-385 -377l47 170h297l492 1847h-297l47 170h471l-588 -2187h-469z" />
<glyph unicode="^" horiz-adv-x="772" d="M-39 831l420 603h170l98 -603h-184l-59 371l-261 -371h-184z" />
<glyph unicode="_" horiz-adv-x="1572" d="M139 0l47 170h1246l-48 -170h-1245z" />
<glyph unicode="`" horiz-adv-x="690" d="M129 1397l248 76l178 -297l-123 -60z" />
<glyph unicode="a" d="M64 284q-4 29 -4 60q0 70 22 148q29 109 93.5 205t150.5 167.5t186 113.5t203 42q102 0 179 -40t124 -112l31 115h176l-264 -983h-177l31 115q-84 -72 -183.5 -112t-201.5 -40t-180 41t-125 112.5t-61 167.5zM245 352q9 -66 40.5 -114t85 -76.5t121.5 -28.5t135 28.5 t125.5 77t101.5 114t64 139.5q12 51 12 98q0 21 -2 41q-8 65 -40 113.5t-85 77t-121 28.5t-135.5 -28.5t-126 -77t-102.5 -114t-62 -138.5q-14 -51 -14 -98q0 -22 3 -42z" />
<glyph unicode="b" d="M-23 0l383 1436h177l-152 -568q84 70 182.5 111t200.5 41t180 -42t126 -112q48 -72 62 -168q4 -29 4 -59q0 -70 -22 -147q-29 -109 -93 -205.5t-150.5 -168t-186.5 -113.5t-203 -42q-102 0 -179 40t-124 112l-30 -115h-175zM273 352q8 -66 39.5 -115t83.5 -76.5 t120 -27.5t136.5 27.5t127 77t102.5 115t62 139.5q14 51 14 98q0 21 -3 41q-9 65 -40.5 113.5t-85 77t-120.5 28.5q-68 0 -135.5 -28.5t-126 -77t-101.5 -114t-63 -138.5q-12 -51 -12 -98q0 -22 2 -42z" />
<glyph unicode="c" horiz-adv-x="1116" d="M68 286q-6 34 -6 69q0 66 20 139q29 109 96.5 205t158.5 166.5t198.5 112.5t218.5 42q139 0 236 -65.5t140 -176.5l-167 -94q-27 76 -93.5 121t-162.5 45q-74 0 -147 -28.5t-132 -76t-105.5 -113t-64.5 -138.5q-13 -49 -13 -95q0 -23 3 -45q10 -66 44 -115t92 -77.5 t132 -28.5q96 0 185.5 46t154.5 120l121 -94q-100 -111 -234.5 -176.5t-273.5 -65.5q-111 0 -196 42t-137 113.5t-68 167.5z" />
<glyph unicode="d" d="M10 284q-4 31 -3 63q0 68 18 142q31 111 95 207.5t149 168t185.5 113.5t202.5 42t180 -41t126 -113l153 570h174l-385 -1436h-174l31 113q-88 -72 -186.5 -111t-200.5 -39t-180 41t-125.5 112.5t-59.5 167.5zM189 350q8 -65 40.5 -113.5t84.5 -76t120 -27.5t136.5 27.5 t126 76t101.5 114t64 138.5q14 51 14 98q0 21 -3 41q-9 66 -40.5 115.5t-85 78t-120.5 28.5q-68 0 -135.5 -28.5t-126 -78t-101.5 -115t-63 -139.5q-14 -53 -14 -101q0 -19 2 -38z" />
<glyph unicode="e" horiz-adv-x="1146" d="M70 254q-9 43 -10 90q0 48 10 100q4 10 6 22.5t6 25.5q16 66 47 122q41 86 105.5 161t142.5 129t165 85t173 31t156.5 -31t117.5 -85t73 -129q22 -65 22 -138q0 -11 -1 -23q-2 -57 -18 -122q-4 -12 -7 -24.5t-9 -23.5h-807q-3 -26 -4 -51q0 -37 8 -72q12 -57 42.5 -98 t79 -65.5t109.5 -24.5q94 0 182.5 45t155.5 121l119 -92q-98 -111 -231.5 -177.5t-272.5 -66.5q-96 0 -171 37t-123 101.5t-66 152.5zM305 614h602q-8 104 -71.5 170t-167.5 66t-202.5 -65.5t-160.5 -170.5z" />
<glyph unicode="f" horiz-adv-x="665" d="M8 0l223 831h-125l46 170h124l23 82q66 250 229 347q53 31 104 39q35 6 64 6q13 0 25 -1q39 -4 64.5 -13t31.5 -11l-106 -158l-13 4q-12 4 -29.5 6.5t-40 0t-44.5 -14.5q-35 -23 -65 -75t-50 -130l-23 -82h207l-45 -170h-207l-223 -831h-170z" />
<glyph unicode="g" d="M27 -207l174 70q2 -4 11 -36t33.5 -71t72 -69.5t120.5 -30.5q88 0 160 35t124 91t88 127t54 142l17 64q-86 -72 -184.5 -112t-200.5 -40t-181 41t-126.5 112.5t-60.5 167.5q-4 30 -4 60q0 71 21 148q29 111 93.5 207t150.5 167.5t186.5 112.5t202.5 41t179 -40t126 -112 l31 115h174l-250 -932q-35 -127 -98 -231.5t-148 -178t-186.5 -114.5t-212.5 -41q-117 0 -188.5 46t-110.5 102.5t-52 105.5t-15 53zM310 352q7 -65 39 -114.5t85 -77t121 -27.5t135.5 27.5t125.5 77t102.5 115t64.5 139.5q12 51 12 98q0 21 -2 41q-8 65 -40.5 114.5t-85 77 t-119.5 27.5q-68 0 -136.5 -27.5t-126 -77t-101.5 -115t-62 -138.5q-15 -54 -15 -103q0 -19 3 -37z" />
<glyph unicode="h" horiz-adv-x="1220" d="M-8 0l385 1438h176l-145 -543q0 2 24.5 21.5t68.5 43t105.5 43t136.5 19.5q113 0 177.5 -34t97.5 -84t40 -108q4 -37 4 -70q0 -19 -1 -36q-2 -23 -5 -40t-7 -32l-7 -28l-159 -590h-174l157 582q8 33 14 80q2 14 1 27q1 33 -9 63q-14 43 -54 73.5t-122 30.5 q-98 0 -164.5 -29.5t-108.5 -71.5t-64.5 -85t-30.5 -68l-162 -602h-174z" />
<glyph unicode="i" horiz-adv-x="501" d="M-20 0l262 983h174l-264 -983h-172zM291 1264q12 47 55 79.5t90 32.5q46 0 70 -32q16 -22 16 -50q0 -14 -4 -30q-12 -47 -54 -81t-89 -34t-71 34q-16 23 -17 52q0 14 4 29z" />
<glyph unicode="j" horiz-adv-x="497" d="M-330 -469l105 158l12 -4t30.5 -5.5t40 1t44.5 14.5q74 43 114 205l291 1083h170l-291 -1083q-68 -254 -227 -346q-55 -31 -105 -40q-37 -7 -68 -7q-11 0 -22 1q-38 3 -64 12t-30 11zM356 1276q12 47 55.5 81t90.5 34t70 -34q16 -23 16 -51q0 -14 -4 -30 q-12 -47 -54.5 -80t-89.5 -33t-72 33q-16 22 -16 51q0 14 4 29z" />
<glyph unicode="k" horiz-adv-x="1105" d="M-8 0l37 141l67 254l281 1043h174l-232 -860l592 481l93 -121l-439 -358l326 -580h-227l-254 453l-158 -129l-88 -324h-172z" />
<glyph unicode="l" horiz-adv-x="501" d="M-8 0l385 1438h174l-387 -1438h-172z" />
<glyph unicode="m" horiz-adv-x="1615" d="M25 0l264 981h168h8l-23 -78q37 39 90 70q23 14 47.5 25.5t49.5 15.5q20 6 41 6q17 1 33 1q41 0 79 -7q45 -10 91.5 -37t70.5 -86q2 -4 3 -10.5t3 -10.5q29 31 65 58.5t73.5 47t76.5 32t72 12.5q18 1 36 1q81 0 140 -30q31 -16 57.5 -41.5t41 -66.5t15.5 -99v-5 q0 -56 -20 -130l-174 -649h-174l176 653q12 48 12 82q0 17 -3 30q-9 40 -34.5 58.5t-59 22.5t-60.5 4q-82 0 -154.5 -57.5t-93.5 -139.5l-2 -4l-174 -649h-174l176 653q12 48 12 82q0 17 -3 30q-9 40 -34.5 58.5t-59.5 22.5t-60 4q-82 0 -154 -57.5t-92 -139.5l-176 -653 h-176z" />
<glyph unicode="n" horiz-adv-x="1200" d="M27 0l262 983h174l-23 -88q2 0 27 20.5t69 43t105 42t135 19.5q113 0 178.5 -34t97.5 -84t40 -108q5 -38 5 -72q0 -18 -1 -34q-2 -23 -5.5 -40t-7.5 -32l-6 -28l-157 -588h-175l156 580q7 33 13 80q2 14 2 27q0 33 -10 63q-14 43 -53.5 73.5t-121.5 30.5 q-98 0 -164.5 -29.5t-109.5 -71.5t-64.5 -84t-30.5 -67l-161 -602h-174z" />
<glyph unicode="o" horiz-adv-x="1222" d="M68 286q-6 34 -6 69q0 66 20 139q29 109 96.5 205t158.5 167.5t198.5 113.5t218.5 42q109 0 193.5 -42t138.5 -114q53 -72 68 -168q5 -34 5 -68q0 -65 -18 -136q-31 -111 -98.5 -207.5t-158.5 -168t-198.5 -113.5t-216.5 -42q-111 0 -196 42t-137 113.5t-68 167.5z M248 354q10 -66 44 -115t91 -77.5t131 -28.5t146.5 28.5t133 78t105.5 115t66 139.5q12 49 12 95q0 23 -3 44q-9 65 -43 113.5t-91 77t-131 28.5t-147 -28.5t-134 -77t-106.5 -114t-63.5 -138.5q-13 -49 -13 -95q0 -23 3 -45z" />
<glyph unicode="p" d="M-37 -492l393 1475h174l-30 -115q86 72 184.5 112t200.5 40q100 0 180 -41t127 -112.5t60 -168.5q5 -29 5 -59q0 -70 -22 -147q-29 -111 -93.5 -207.5t-150.5 -168t-187.5 -112.5t-201.5 -41q-102 0 -179 40t-126 112l-162 -607h-172zM387 352q8 -65 41 -114.5t85 -77 t120 -27.5t136.5 27.5t125.5 77t101 115t63 139.5q14 53 14 101q0 19 -2 38q-8 65 -40 114.5t-85 77t-121 27.5t-135 -27.5t-125.5 -77t-102.5 -115t-65 -138.5q-12 -51 -12 -98q0 -21 2 -42z" />
<glyph unicode="q" d="M126 284q-4 31 -4 63q0 69 19 145q31 111 95.5 207t150.5 167.5t186.5 112.5t200.5 41q102 0 180 -40t127 -112l31 115h174l-395 -1475h-174l162 607q-86 -72 -185.5 -112t-201.5 -40q-100 0 -179.5 41t-126.5 112.5t-60 167.5zM306 352q7 -65 40 -114.5t85 -77 t120 -27.5t136.5 27.5t125.5 77t102.5 115t63.5 139.5q14 51 14 98q0 21 -3 41q-9 65 -40.5 114.5t-85 77t-121.5 27.5t-135 -27.5t-125.5 -77t-101.5 -115t-64 -138.5q-13 -53 -13 -102q0 -19 2 -38z" />
<glyph unicode="r" horiz-adv-x="778" d="M27 0l262 983h174l-23 -88q2 2 27 21.5t68 43t104 43t137 19.5q66 0 117 -12l-70 -168q-33 14 -92 14q-98 0 -164.5 -29.5t-109.5 -71.5t-64.5 -84t-30.5 -67l-161 -604h-174z" />
<glyph unicode="s" horiz-adv-x="1081" d="M23 174l170 55q18 -39 80.5 -67.5t152.5 -28.5q31 0 75 4t87 18.5t78.5 41t48.5 71.5q6 20 5 41t-20.5 41.5t-68.5 41t-142 40.5q-63 14 -127.5 31.5t-109.5 50.5q-44 33 -66 83q-11 26 -12 59q0 31 10 69q35 131 160 213t305 82q70 0 130.5 -14.5t106.5 -42t75.5 -65.5 t35.5 -85l-172 -55q-12 41 -68.5 66.5t-135.5 25.5q-104 0 -172 -35t-82 -90q-4 -18 -3 -33.5t19 -30t62 -30t124 -31.5q51 -12 118 -30.5t122 -54.5q55 -35 84 -95q16 -32 16 -74q0 -36 -12 -78q-37 -143 -175 -224t-343 -81q-74 0 -135.5 15.5t-106.5 44t-75.5 66.5 t-38.5 85z" />
<glyph unicode="t" horiz-adv-x="663" d="M111 813l47 170h125l120 455h170l-120 -455h204l-47 -170h-204l-123 -459q-20 -74 -20 -123q0 -58 28 -81q14 -12 34.5 -14.5t40 -1.5t34.5 5l14 4l18 -157q-6 -2 -34.5 -10.5t-69.5 -11.5q-11 -1 -23 -1q-31 0 -64 6q-46 8 -83 39q-71 57 -71 178q0 73 26 168l123 459 h-125z" />
<glyph unicode="u" horiz-adv-x="1200" d="M102 295q2 39 13 72l6 28l158 588h174l-156 -580q-8 -35 -13 -82q-1 -14 -1 -27q0 -32 8 -63q12 -43 52 -73.5t122 -30.5q98 0 165.5 30.5t109.5 71.5t63.5 84t30.5 68l161 602h176l-262 -983h-176l23 88l-24 -20q-25 -21 -69.5 -43.5t-105.5 -42t-137 -19.5 q-113 0 -177.5 34t-96.5 84q-32 51 -40 109q-5 38 -5 71q0 18 1 34z" />
<glyph unicode="v" horiz-adv-x="1058" d="M152 983h186l123 -750l524 750h184l-688 -983h-170z" />
<glyph unicode="w" horiz-adv-x="1331" d="M152 983h176l14 -664l371 664h170l12 -664l371 664h176l-547 -983h-170l-14 664l-369 -664h-172z" />
<glyph unicode="x" horiz-adv-x="987" d="M-111 0l498 492l-235 491h213l165 -350l357 350h211l-498 -491l234 -492h-211l-168 348l-355 -348h-211z" />
<glyph unicode="y" horiz-adv-x="1058" d="M45 -463l336 481l-158 965h185l122 -750l525 750h186l-1065 -1522z" />
<glyph unicode="z" horiz-adv-x="958" d="M-49 0l45 168l2 2l735 643h-565l45 170h795l-45 -166l-740 -647h565l-45 -170h-792z" />
<glyph unicode="{" horiz-adv-x="602" d="M37 -145.5q-2 57.5 6 100.5l2 6l115 432q18 66 12 113t-20.5 76.5t-30 44t-17.5 16.5h-2l39 148h2q2 2 26 16t54.5 44t61 77t49.5 112l117 439q16 43 48.5 100t84 108.5t122 87t158.5 35.5l-47 -170q-49 0 -85 -23.5t-60.5 -54t-37.5 -58t-16 -36.5l-114 -428 q-33 -119 -92.5 -197.5t-114.5 -125.5q29 -47 46 -127t-13 -197l-115 -428q0 -10 -1 -37.5t7 -57.5t30.5 -53.5t72.5 -23.5l-48 -170q-88 0 -138 36t-74.5 87t-26.5 108.5z" />
<glyph unicode="|" horiz-adv-x="577" d="M-88 -377l586 2187h168l-588 -2187h-166z" />
<glyph unicode="}" horiz-adv-x="583" d="M-262 -373l47 170q49 0 85 23.5t60.5 54.5t38 58.5t15.5 35.5l112 428q31 117 91.5 197t117.5 127q-31 47 -49 126t14 197l115 429q2 8 3 36.5t-7 58t-31.5 53.5t-73.5 24l48 170q88 0 138 -36t74.5 -87.5t26.5 -108.5t-6 -100l-2 -8l-115 -431q-18 -66 -12 -112.5 t21.5 -77.5t31 -45t17.5 -14l2 -2l-39 -146l-4 -2q-2 0 -25.5 -14.5t-54.5 -44t-61.5 -76.5t-49.5 -113l-116 -438q-16 -43 -49 -100.5t-83.5 -108.5t-121 -87t-158.5 -36z" />
<glyph unicode="~" horiz-adv-x="1439" d="M12 418q4 4 41 49t103.5 96t154.5 93t193 42q102 0 165.5 -33.5t112.5 -70.5q45 -33 89 -56.5t110 -23.5t120 25.5t99 58.5q47 37 90 86l131 -78q-4 -4 -42 -45t-102.5 -89t-152.5 -88t-190 -40t-165.5 34t-113.5 71q-45 33 -89 56t-109 23q-63 0 -119.5 -28.5 t-99.5 -62.5t-56 -49l-39 -44z" />
<glyph unicode="&#xa2;" horiz-adv-x="1118" d="M64.5 310q-9.5 85 17.5 182q25 96 80 182t130 154.5t165 115.5t184 66l55 200h176l-53 -194q117 -14 197 -76.5t117 -159.5l-170 -94q-23 59 -72 101t-117 57l-190 -705q78 14 149.5 56.5t124.5 103.5l121 -96q-90 -96 -203.5 -158.5t-236.5 -77.5l-54 -194h-176l56 200 q-86 18 -150.5 65.5t-102.5 117t-47.5 154.5zM258 492q-33 -121 11 -214.5t143 -127.5l182 684q-59 -16 -112.5 -50t-98.5 -78t-78 -99.5t-47 -114.5z" />
<glyph unicode="&#xa3;" horiz-adv-x="1095" d="M-119 35q2 4 32 46t80 92t118.5 94t148.5 52q14 45 19.5 80t4.5 64t-9.5 53.5t-18.5 46.5h-203l41 152h92q-16 53 -18 128t27 183q25 92 82 173t137 141.5t173 95t189 34.5q186 0 277.5 -113.5t64.5 -318.5l-172 -24q6 49 2 100t-27.5 92t-68.5 67.5t-123 26.5 q-59 0 -117.5 -21.5t-107.5 -58t-85 -87t-50 -107.5q-16 -61 -20.5 -107.5t0.5 -82t17.5 -64.5t28.5 -57h303l-41 -152h-204q10 -51 5 -116.5t-38 -157.5q29 -16 51.5 -37t40.5 -41q35 -35 61.5 -53.5t65.5 -18.5q41 0 80 24.5t69.5 55.5t49.5 57l20 25l139 -63 q-2 -4 -33.5 -46t-86 -91.5t-128 -90.5t-157.5 -41q-86 0 -136 37t-85 74q-33 35 -59.5 53.5t-67.5 18.5t-80 -28t-71 -60.5t-51 -60.5l-19 -28z" />
<glyph unicode="&#xa5;" horiz-adv-x="1189" d="M61 387l41 152h359l41 149l-29 76h-348l41 151h252l-189 502h201l207 -551l502 551h200l-454 -502h252l-41 -151h-348l-70 -76l-41 -149h358l-41 -152h-358l-102 -387h-177l103 387h-359z" />
<glyph unicode="&#xa7;" horiz-adv-x="1159" d="M2 27.5q-14 68.5 6 148.5h166q-25 -92 31.5 -149.5t173.5 -57.5q123 0 205 53.5t104 137.5q12 51 -7 85t-97 64q-51 20 -140 45q-158 41 -233.5 104.5t-97.5 135.5q-12 41 -11.5 83t11.5 81q23 86 86 158.5t151 125.5q-41 39 -56 94.5t7 137.5q20 78 68.5 143.5 t117 112.5t154.5 73.5t182 26.5q92 0 163 -28.5t115 -77.5t57 -118t-7 -149h-166q25 92 -32.5 149.5t-174.5 57.5q-121 0 -202.5 -53t-104.5 -137q-12 -51 6.5 -85t97.5 -65q27 -10 61 -21t77 -24q158 -41 233.5 -105.5t97.5 -133.5q14 -41 12.5 -83t-12.5 -81 q-23 -86 -85 -159t-150 -126q39 -39 55.5 -94t-6.5 -137q-20 -78 -68.5 -143.5t-118 -112.5t-155.5 -74t-182 -27q-92 0 -162 29t-113 78t-57 117.5zM283 758q-12 -45 2 -82q2 -4 2 -6t2 -6q39 -94 239 -150q29 -6 55.5 -14t55.5 -17q88 23 153.5 75t81.5 118q12 45 0 82 q-2 4 -2 6t-4 6q-37 94 -239 150q-29 6 -56.5 13t-54.5 17q-86 -23 -152.5 -75t-82.5 -117z" />
<glyph unicode="&#xa9;" horiz-adv-x="1570" d="M82.5 380q-19.5 124 17.5 265q39 141 126 266t205 217.5t256 146.5t280 54q141 0 251.5 -54t178 -146.5t88 -217.5t-18.5 -266q-37 -141 -125 -265t-204.5 -217t-256 -146.5t-280.5 -53.5t-250.5 53.5t-178.5 146.5t-88.5 217zM212.5 427q16.5 -101 71 -178t143.5 -121 t206 -44t229.5 44t208.5 121t167 178t101 218q33 117 15.5 218.5t-71.5 178t-143 120.5t-206 44t-229.5 -44t-209 -120.5t-166 -178t-102.5 -218.5q-31 -117 -14.5 -218zM387 494.5q10 -70.5 49 -123t101.5 -82t142.5 -29.5q102 0 199.5 48t171.5 128l-88 68 q-49 -53 -114.5 -87t-135.5 -34q-53 0 -95.5 20.5t-67 56.5t-32.5 84t6 101q16 55 49 102.5t77 83t97.5 56t106.5 20.5q70 0 117 -32.5t67 -88.5l125 70q-33 78 -103.5 127t-172.5 49q-80 0 -159 -30.5t-145.5 -83t-114.5 -123t-71 -150.5q-20 -80 -10 -150.5z" />
<glyph unicode="&#xad;" horiz-adv-x="745" d="M37 408l47 170h623l-48 -170h-622z" />
<glyph unicode="&#xae;" horiz-adv-x="1570" d="M83.5 380q-20.5 124 16.5 265q39 141 127 266t205 217.5t256 146.5t281 54q141 0 250.5 -54t178 -146.5t88 -217.5t-19.5 -266q-37 -141 -124 -265t-204.5 -217t-256 -146.5t-279.5 -53.5t-251.5 53.5t-178.5 146.5t-88.5 217zM213.5 427q17.5 -101 72 -177t143.5 -120 t206 -44t229.5 44t208.5 120t166 177t100 218q33 117 16.5 218.5t-71.5 178t-143 120.5t-205 44t-230.5 -44t-209 -120.5t-166 -178t-103.5 -218.5q-31 -117 -13.5 -218zM416 260h121l73 277h115l129 -277h150l-132 283q45 8 88.5 30.5t77 54t60 72.5t39.5 84q12 51 5 96.5 t-32 79t-64.5 53t-91.5 19.5h-331zM643 655l68 258h211q53 0 80.5 -38t13.5 -91t-61.5 -91t-100.5 -38h-211z" />
<glyph unicode="&#xb5;" horiz-adv-x="1218" d="M-31 -481l389 1462h172h2l-153 -578q-10 -35 -15.5 -82t8 -90t53.5 -72.5t122 -29.5q98 0 164.5 29.5t109.5 71.5t64.5 84t29.5 67l160 600h174l-262 -979h-174l25 88q-2 -2 -27 -21.5t-69 -43t-105.5 -42t-136.5 -18.5q-78 0 -133.5 16.5t-92.5 45.5l-135 -508h-170z " />
<glyph unicode="&#xb6;" horiz-adv-x="1294" d="M165 805q-13 82 11 176q25 94 82 176t135 143.5t170 97.5t187 36h673l-51 -189h-98l-422 -1575h-195l422 1575h-188l-422 -1575h-193l230 858q-94 0 -167 36t-117 97.5t-57 143.5z" />
<glyph unicode="&#xc4;" horiz-adv-x="1435" d="M-215 0l987 1434h186l220 -1434h-203l-64 412h-641l-280 -412h-205zM401 600h482l-88 569zM657 1649q12 47 54.5 79.5t89.5 32.5t71.5 -32.5t12.5 -79.5t-55.5 -80t-90.5 -33t-70.5 33t-11.5 80zM961 1649q12 47 54 79.5t89 32.5t70.5 -32.5t11.5 -79.5t-54 -80t-90 -33 q-47 0 -70.5 33t-10.5 80z" />
<glyph unicode="&#xc6;" horiz-adv-x="2039" d="M-170 0l1120 1434h1178l-49 -189h-762l-117 -434h707l-52 -188h-706l-115 -433h762l-51 -190h-954l108 410h-541l-319 -410h-209zM508 598h442l174 647h-108z" />
<glyph unicode="&#x2dc;" horiz-adv-x="1398" d="M-6 418q4 4 41 48t102.5 95t153.5 93t192 42q102 0 166 -33.5t115 -70.5q45 -31 88 -54.5t111 -23.5q63 0 119.5 26.5t98.5 58.5t67 59l24 26l129 -80q-4 -4 -42 -45t-101.5 -89t-150.5 -87t-189 -39t-167 34t-114 71q-45 31 -89 54t-112 23q-63 0 -119.5 -28.5 t-99.5 -62.5t-56 -49l-38 -44z" />
<glyph unicode="&#x2000;" horiz-adv-x="920" />
<glyph unicode="&#x2001;" horiz-adv-x="1841" />
<glyph unicode="&#x2002;" horiz-adv-x="920" />
<glyph unicode="&#x2003;" horiz-adv-x="1841" />
<glyph unicode="&#x2004;" horiz-adv-x="613" />
<glyph unicode="&#x2005;" horiz-adv-x="460" />
<glyph unicode="&#x2006;" horiz-adv-x="306" />
<glyph unicode="&#x2007;" horiz-adv-x="306" />
<glyph unicode="&#x2008;" horiz-adv-x="230" />
<glyph unicode="&#x2009;" horiz-adv-x="368" />
<glyph unicode="&#x200a;" horiz-adv-x="102" />
<glyph unicode="&#x2010;" horiz-adv-x="745" d="M37 408l47 170h623l-48 -170h-622z" />
<glyph unicode="&#x2011;" horiz-adv-x="745" d="M37 408l47 170h623l-48 -170h-622z" />
<glyph unicode="&#x2012;" horiz-adv-x="745" d="M37 408l47 170h623l-48 -170h-622z" />
<glyph unicode="&#x2013;" horiz-adv-x="1101" d="M37 408l47 170h979l-47 -170h-979z" />
<glyph unicode="&#x2014;" horiz-adv-x="2082" d="M37 408l47 170h1960l-47 -170h-1960z" />
<glyph unicode="&#x2018;" horiz-adv-x="540" d="M57 1128l340 414l95 -47l-281 -446z" />
<glyph unicode="&#x2019;" horiz-adv-x="530" d="M45 1098l277 444l153 -80l-338 -413z" />
<glyph unicode="&#x201c;" horiz-adv-x="862" d="M57 1128l340 414l95 -47l-281 -446zM379 1128l338 414l96 -47l-281 -446z" />
<glyph unicode="&#x201d;" horiz-adv-x="860" d="M47 1096l281 446l153 -80l-340 -413zM367 1096l280 446l154 -80l-338 -413z" />
<glyph unicode="&#x201e;" horiz-adv-x="1024" />
<glyph unicode="&#x2022;" horiz-adv-x="958" d="M91 570.5q-11 68.5 11 146.5q20 78 68.5 146.5t113 119.5t141.5 81t155 30t138 -30t98 -81t49 -119.5t-9 -146.5q-23 -78 -71 -146.5t-112.5 -120t-141 -81t-154.5 -29.5t-138.5 29.5t-98.5 81t-49 120z" />
<glyph unicode="&#x2026;" horiz-adv-x="2033" d="M102 94q12 47 54.5 80t89.5 33t71.5 -33t12.5 -80q-14 -47 -55.5 -79.5t-88.5 -32.5t-72.5 32.5t-11.5 79.5zM905 94q12 47 53 80t89 33q47 0 72.5 -33t13.5 -80q-14 -47 -56.5 -79.5t-89.5 -32.5t-71.5 32.5t-10.5 79.5zM1708 94q12 47 53 80t88 33t71.5 -33t12.5 -80 q-14 -47 -55 -79.5t-88 -32.5t-71.5 32.5t-10.5 79.5z" />
<glyph unicode="&#x202f;" horiz-adv-x="368" />
<glyph unicode="&#x205f;" horiz-adv-x="460" />
<glyph unicode="&#x2122;" horiz-adv-x="1562" d="M160 1292l37 142h522l-37 -142h-186l-154 -575h-149l153 575h-186zM625 717l190 717h150l2 -2l118 -334l299 334v2h150l-191 -717h-149l119 448l-299 -336l-119 336l-119 -448h-151z" />
<glyph unicode="&#xe000;" horiz-adv-x="983" d="M0 0v983h983v-983h-983z" />
</font>
</defs>
</svg>
